<svg height="40px" viewBox="0 0 85 41" xmlns="http://www.w3.org/2000/svg" class="svg-icon icon-ripioBlack" xmlns:xlink="http://www.w3.org/1999/xlink"><g id="icon-ripioBlack" stroke="none" stroke-width="1" fill="none" fill-rule="evenodd"><g id="Icon-/-Logo-/-Black" fill="#373744"><path d="M6.4876861,14.1227442 L6.55916377,14.1227442 C7.80660446,11.8771023 9.94596215,10.8789011 12.4762716,10.8789011 L13.7243339,10.8789011 L13.7243339,17.1167261 C12.8330384,16.6176256 11.9777926,16.5107198 10.9789698,16.5107198 C7.37898154,16.5107198 6.4876861,18.8986955 6.4876861,22.0356328 L6.4876861,29.4152359 L8.8817842e-15,29.4152359 L8.8817842e-15,11.1281406 L6.4876861,11.1281406 L6.4876861,14.1227442 Z M17.0862704,11.1281406 L23.5739565,11.1281406 L23.5739565,29.4152359 L17.0862704,29.4152359 L17.0862704,11.1281406 Z M34.9370412,13.1953991 L35.0085188,13.1953991 C36.1851034,11.3773802 38.3946957,10.5215128 40.5340534,10.5215128 C45.9881102,10.5215128 49.7664819,15.0842742 49.7664819,20.323898 C49.7664819,25.5995715 46.0235383,30.0212422 40.6049095,30.0212422 C38.5022229,30.0212422 36.3274372,29.2722806 34.9370412,27.6680731 L34.9370412,37.6848913 L28.4493551,40.4227968 L28.4493551,11.1281406 L34.9370412,11.1281406 L34.9370412,13.1953991 Z M34.7232297,20.2897131 C34.7232297,22.6068326 36.2559595,24.3894235 38.8944178,24.3894235 C41.5322545,24.3894235 43.0643628,22.6068326 43.0643628,20.2897131 C43.0643628,18.0440712 41.5322545,16.1545746 38.8944178,16.1545746 C36.2559595,16.153953 34.7232297,18.0434496 34.7232297,20.2897131 Z M53.2172994,11.1281406 L59.7049855,11.1281406 L59.7049855,29.4152359 L53.2172994,29.4152359 L53.2172994,11.1281406 Z M85,20.2897131 C85,26.49211 79.8672819,30.0218638 73.9856021,30.0218638 C68.1393504,30.0218638 62.9705826,26.5275381 62.9705826,20.2897131 C62.9705826,14.051888 68.1033008,10.5221343 73.9856021,10.5221343 C79.8672819,10.5221343 85,14.0512665 85,20.2897131 Z M69.814414,20.2897131 C69.814414,22.6068326 71.3471438,24.3894235 73.9856021,24.3894235 C76.6234388,24.3894235 78.1561687,22.6068326 78.1561687,20.2897131 C78.1561687,18.0440712 76.6234388,16.1545746 73.9856021,16.1545746 C71.3471438,16.153953 69.814414,18.0434496 69.814414,20.2897131 Z M23.5590395,6.04390301 L17.2211457,8.59907426 L17.2211457,2.55454971 L23.5727134,0 L23.5590395,6.04390301 Z M59.6235631,6.04390301 L53.2850478,8.59907426 L53.2850478,2.55454971 L59.6372371,0 L59.6235631,6.04390301 Z" id="Combined-Shape"></path></g></g></svg>
